<?xml version="1.0" encoding="UTF-8" standalone="no"?>
<!DOCTYPE svg PUBLIC "-//W3C//DTD SVG 1.1//EN" "http://www.w3.org/Graphics/SVG/1.1/DTD/svg11.dtd">
<svg version="1.1" xmlns="http://www.w3.org/2000/svg" xmlns:xlink="http://www.w3.org/1999/xlink"
     preserveAspectRatio="xMidYMid meet" viewBox="0 0 640 640" width="640" height="640">
    <defs>
        <path d="M150 400L300 550L450 400L450 250C450 250 450 250 450 250C367.16 332.84 232.84 332.84 150 250C150 250 150 250 150 250L150 400Z"
              id="a27ikIAKxa"></path>
        <linearGradient id="gradientb2gHR0lKIw" gradientUnits="userSpaceOnUse" x1="300" y1="250" x2="300" y2="550">
            <stop style="stop-color: #6d19d8;stop-opacity: 1" offset="0%"></stop>
            <stop style="stop-color: #010000;stop-opacity: 1" offset="100%"></stop>
        </linearGradient>
        <path d="M375 200C375 241.39 341.39 275 300 275C258.61 275 225 241.39 225 200C225 158.61 258.61 125 300 125C341.39 125 375 158.61 375 200Z"
              id="a2TeA3RQDN"></path>
        <radialGradient id="gradientb5YT0z6Hk" gradientUnits="userSpaceOnUse" cx="300" cy="256.65" dx="300" dy="365.65"
                        r="108.99">
            <stop style="stop-color: #b63aad;stop-opacity: 1" offset="0%"></stop>
            <stop style="stop-color: #6719cb;stop-opacity: 1" offset="100%"></stop>
        </radialGradient>
        <path d="" id="f9xZHF6yj8"></path>
        <path d="M350 350L350 370L250 370L250 350L350 350Z" id="c22kQFsR50"></path>
        <path d="M350 400L350 420L250 420L250 400L350 400Z" id="c2J7aalvcN"></path>
        <path d="M349.96 470.82L349.83 471.64L349.63 472.45L349.35 473.24L348.98 474.03L348.55 474.8L348.03 475.57L347.45 476.32L346.79 477.06L346.07 477.78L345.28 478.49L344.42 479.19L343.49 479.87L342.5 480.53L341.46 481.18L340.35 481.81L339.18 482.42L337.96 483.01L336.68 483.59L335.35 484.14L333.97 484.67L332.53 485.18L331.05 485.67L329.52 486.14L327.95 486.58L326.33 487L324.67 487.4L322.97 487.77L321.23 488.11L319.45 488.43L317.64 488.72L315.8 488.98L313.92 489.21L312.01 489.42L310.07 489.59L308.11 489.74L306.11 489.85L304.1 489.93L302.06 489.98L300 490L297.94 489.98L295.9 489.93L293.89 489.85L291.89 489.74L289.93 489.59L287.99 489.42L286.08 489.21L284.2 488.98L282.36 488.72L280.55 488.43L278.77 488.11L277.03 487.77L275.33 487.4L273.67 487L272.05 486.58L270.48 486.14L268.95 485.67L267.47 485.18L266.03 484.67L264.65 484.14L263.32 483.59L262.04 483.01L260.82 482.42L259.65 481.81L258.54 481.18L257.5 480.53L256.51 479.87L255.58 479.19L254.72 478.49L253.93 477.78L253.21 477.06L252.55 476.32L251.97 475.57L251.45 474.8L251.02 474.03L250.65 473.24L250.37 472.45L250.17 471.64L250.04 470.82L250 470L250.04 469.18L250.17 468.36L250.37 467.55L250.65 466.76L251.02 465.97L251.45 465.2L251.97 464.43L252.55 463.68L253.21 462.94L253.93 462.22L254.72 461.51L255.58 460.81L256.51 460.13L257.5 459.47L258.54 458.82L259.65 458.19L260.82 457.58L262.04 456.99L263.32 456.41L264.65 455.86L266.03 455.33L267.47 454.82L268.95 454.33L270.48 453.86L272.05 453.42L273.67 453L275.33 452.6L277.03 452.23L278.77 451.89L280.55 451.57L282.36 451.28L284.2 451.02L286.08 450.79L287.99 450.58L289.93 450.41L291.89 450.26L293.89 450.15L295.9 450.07L297.94 450.02L300 450L302.06 450.02L304.1 450.07L306.11 450.15L308.11 450.26L310.07 450.41L312.01 450.58L313.92 450.79L315.8 451.02L317.64 451.28L319.45 451.57L321.23 451.89L322.97 452.23L324.67 452.6L326.33 453L327.95 453.42L329.52 453.86L331.05 454.33L332.53 454.82L333.97 455.33L335.35 455.86L336.68 456.41L337.96 456.99L339.18 457.58L340.35 458.19L341.46 458.82L342.5 459.47L343.49 460.13L344.42 460.81L345.28 461.51L346.07 462.22L346.79 462.94L347.45 463.68L348.03 464.43L348.55 465.2L348.98 465.97L349.35 466.76L349.63 467.55L349.83 468.36L349.96 469.18L350 470L350 470L349.96 470.82Z"
              id="e7xoP2CE6"></path>
        <path d="M350 450L350 470L250 470L250 450L350 450Z" id="a5Spc7oIsX"></path>
        <path d="M350 450C350 461.04 327.6 470 300 470C272.4 470 250 461.04 250 450C250 438.96 272.4 430 300 430C327.6 430 350 438.96 350 450Z"
              id="aYzjeOMuT"></path>
        <path d="M349.96 420.82L349.83 421.64L349.63 422.45L349.35 423.24L348.98 424.03L348.55 424.8L348.03 425.57L347.45 426.32L346.79 427.06L346.07 427.78L345.28 428.49L344.42 429.19L343.49 429.87L342.5 430.53L341.46 431.18L340.35 431.81L339.18 432.42L337.96 433.01L336.68 433.59L335.35 434.14L333.97 434.67L332.53 435.18L331.05 435.67L329.52 436.14L327.95 436.58L326.33 437L324.67 437.4L322.97 437.77L321.23 438.11L319.45 438.43L317.64 438.72L315.8 438.98L313.92 439.21L312.01 439.42L310.07 439.59L308.11 439.74L306.11 439.85L304.1 439.93L302.06 439.98L300 440L297.94 439.98L295.9 439.93L293.89 439.85L291.89 439.74L289.93 439.59L287.99 439.42L286.08 439.21L284.2 438.98L282.36 438.72L280.55 438.43L278.77 438.11L277.03 437.77L275.33 437.4L273.67 437L272.05 436.58L270.48 436.14L268.95 435.67L267.47 435.18L266.03 434.67L264.65 434.14L263.32 433.59L262.04 433.01L260.82 432.42L259.65 431.81L258.54 431.18L257.5 430.53L256.51 429.87L255.58 429.19L254.72 428.49L253.93 427.78L253.21 427.06L252.55 426.32L251.97 425.57L251.45 424.8L251.02 424.03L250.65 423.24L250.37 422.45L250.17 421.64L250.04 420.82L250 420L250.04 419.18L250.17 418.36L250.37 417.55L250.65 416.76L251.02 415.97L251.45 415.2L251.97 414.43L252.55 413.68L253.21 412.94L253.93 412.22L254.72 411.51L255.58 410.81L256.51 410.13L257.5 409.47L258.54 408.82L259.65 408.19L260.82 407.58L262.04 406.99L263.32 406.41L264.65 405.86L266.03 405.33L267.47 404.82L268.95 404.33L270.48 403.86L272.05 403.42L273.67 403L275.33 402.6L277.03 402.23L278.77 401.89L280.55 401.57L282.36 401.28L284.2 401.02L286.08 400.79L287.99 400.58L289.93 400.41L291.89 400.26L293.89 400.15L295.9 400.07L297.94 400.02L300 400L302.06 400.02L304.1 400.07L306.11 400.15L308.11 400.26L310.07 400.41L312.01 400.58L313.92 400.79L315.8 401.02L317.64 401.28L319.45 401.57L321.23 401.89L322.97 402.23L324.67 402.6L326.33 403L327.95 403.42L329.52 403.86L331.05 404.33L332.53 404.82L333.97 405.33L335.35 405.86L336.68 406.41L337.96 406.99L339.18 407.58L340.35 408.19L341.46 408.82L342.5 409.47L343.49 410.13L344.42 410.81L345.28 411.51L346.07 412.22L346.79 412.94L347.45 413.68L348.03 414.43L348.55 415.2L348.98 415.97L349.35 416.76L349.63 417.55L349.83 418.36L349.96 419.18L350 420L350 420L349.96 420.82Z"
              id="g3gvOD6qgy"></path>
        <path d="M350 400C350 411.04 327.6 420 300 420C272.4 420 250 411.04 250 400C250 388.96 272.4 380 300 380C327.6 380 350 388.96 350 400Z"
              id="aPJPDUx1"></path>
        <path d="M349.96 370.82L349.83 371.64L349.63 372.45L349.35 373.24L348.98 374.03L348.55 374.8L348.03 375.57L347.45 376.32L346.79 377.06L346.07 377.78L345.28 378.49L344.42 379.19L343.49 379.87L342.5 380.53L341.46 381.18L340.35 381.81L339.18 382.42L337.96 383.01L336.68 383.59L335.35 384.14L333.97 384.67L332.53 385.18L331.05 385.67L329.52 386.14L327.95 386.58L326.33 387L324.67 387.4L322.97 387.77L321.23 388.11L319.45 388.43L317.64 388.72L315.8 388.98L313.92 389.21L312.01 389.42L310.07 389.59L308.11 389.74L306.11 389.85L304.1 389.93L302.06 389.98L300 390L297.94 389.98L295.9 389.93L293.89 389.85L291.89 389.74L289.93 389.59L287.99 389.42L286.08 389.21L284.2 388.98L282.36 388.72L280.55 388.43L278.77 388.11L277.03 387.77L275.33 387.4L273.67 387L272.05 386.58L270.48 386.14L268.95 385.67L267.47 385.18L266.03 384.67L264.65 384.14L263.32 383.59L262.04 383.01L260.82 382.42L259.65 381.81L258.54 381.18L257.5 380.53L256.51 379.87L255.58 379.19L254.72 378.49L253.93 377.78L253.21 377.06L252.55 376.32L251.97 375.57L251.45 374.8L251.02 374.03L250.65 373.24L250.37 372.45L250.17 371.64L250.04 370.82L250 370L250.04 369.18L250.17 368.36L250.37 367.55L250.65 366.76L251.02 365.97L251.45 365.2L251.97 364.43L252.55 363.68L253.21 362.94L253.93 362.22L254.72 361.51L255.58 360.81L256.51 360.13L257.5 359.47L258.54 358.82L259.65 358.19L260.82 357.58L262.04 356.99L263.32 356.41L264.65 355.86L266.03 355.33L267.47 354.82L268.95 354.33L270.48 353.86L272.05 353.42L273.67 353L275.33 352.6L277.03 352.23L278.77 351.89L280.55 351.57L282.36 351.28L284.2 351.02L286.08 350.79L287.99 350.58L289.93 350.41L291.89 350.26L293.89 350.15L295.9 350.07L297.94 350.02L300 350L302.06 350.02L304.1 350.07L306.11 350.15L308.11 350.26L310.07 350.41L312.01 350.58L313.92 350.79L315.8 351.02L317.64 351.28L319.45 351.57L321.23 351.89L322.97 352.23L324.67 352.6L326.33 353L327.95 353.42L329.52 353.86L331.05 354.33L332.53 354.82L333.97 355.33L335.35 355.86L336.68 356.41L337.96 356.99L339.18 357.58L340.35 358.19L341.46 358.82L342.5 359.47L343.49 360.13L344.42 360.81L345.28 361.51L346.07 362.22L346.79 362.94L347.45 363.68L348.03 364.43L348.55 365.2L348.98 365.97L349.35 366.76L349.63 367.55L349.83 368.36L349.96 369.18L350 370L350 370L349.96 370.82Z"
              id="cWCxVTDT"></path>
        <path d="M350 350C350 361.04 327.6 370 300 370C272.4 370 250 361.04 250 350C250 338.96 272.4 330 300 330C327.6 330 350 338.96 350 350Z"
              id="h23gQt7yYt"></path>
    </defs>
    <g>
        <g>
            <g>
                <use xlink:href="#a27ikIAKxa" opacity="1" fill="url(#gradientb2gHR0lKIw)"></use>
            </g>
            <g>
                <use xlink:href="#a2TeA3RQDN" opacity="1" fill="url(#gradientb5YT0z6Hk)"></use>
            </g>
            <g>
                <g>
                    <use xlink:href="#f9xZHF6yj8" opacity="1" fill-opacity="0" stroke="#000000" stroke-width="1"
                         stroke-opacity="1"></use>
                </g>
            </g>
            <g>
                <use xlink:href="#c22kQFsR50" opacity="1" fill="#be31ec" fill-opacity="1"></use>
            </g>
            <g>
                <use xlink:href="#c2J7aalvcN" opacity="1" fill="#be31ec" fill-opacity="1"></use>
            </g>
            <g>
                <use xlink:href="#e7xoP2CE6" opacity="1" fill="#be31ec" fill-opacity="1"></use>
            </g>
            <g>
                <use xlink:href="#a5Spc7oIsX" opacity="1" fill="#be31ec" fill-opacity="1"></use>
            </g>
            <g>
                <use xlink:href="#aYzjeOMuT" opacity="1" fill="#ad49a4" fill-opacity="1"></use>
            </g>
            <g>
                <use xlink:href="#g3gvOD6qgy" opacity="1" fill="#be31ec" fill-opacity="1"></use>
            </g>
            <g>
                <use xlink:href="#aPJPDUx1" opacity="1" fill="#ad49a4" fill-opacity="1"></use>
            </g>
            <g>
                <use xlink:href="#cWCxVTDT" opacity="1" fill="#be31ec" fill-opacity="1"></use>
            </g>
            <g>
                <use xlink:href="#h23gQt7yYt" opacity="1" fill="#ad49a4" fill-opacity="1"></use>
            </g>
        </g>
    </g>
</svg>
