<?xml version="1.0" standalone="no"?>
<!DOCTYPE svg PUBLIC "-//W3C//DTD SVG 20010904//EN"
 "http://www.w3.org/TR/2001/REC-SVG-20010904/DTD/svg10.dtd">
<svg version="1.0" xmlns="http://www.w3.org/2000/svg"
 width="700.000000pt" height="700.000000pt" viewBox="0 0 700.000000 700.000000"
 preserveAspectRatio="xMidYMid meet">
<metadata>
Created by potrace 1.14, written by Peter Selinger 2001-2017
</metadata>
<g transform="translate(0.000000,700.000000) scale(0.100000,-0.100000)"
fill="#000000" stroke="none">
<path d="M3205 5628 c-192 -19 -368 -102 -500 -234 -111 -112 -193 -260 -225
-408 -98 -458 212 -909 674 -984 52 -8 186 -8 251 0 285 36 554 261 651 543
29 84 34 116 40 225 14 244 -69 455 -247 630 -170 167 -409 252 -644 228z"/>
<path d="M1640 3444 l0 -819 820 -820 c450 -450 822 -817 824 -815 81 71 1636
1638 1637 1649 0 20 0 1615 0 1620 -1 2 -28 -22 -62 -53 -154 -142 -321 -260
-517 -362 -185 -97 -460 -191 -637 -218 -22 -4 -47 -8 -55 -11 -14 -3 -75 -11
-170 -21 -54 -5 -361 -5 -400 1 -19 2 -57 7 -85 10 -27 3 -61 7 -75 10 -14 3
-38 7 -55 10 -216 36 -521 144 -700 248 -39 22 -200 121 -210 129 -66 50 -217
170 -231 185 -11 10 -34 31 -52 47 l-32 30 0 -820z"/>
</g>
</svg>
